# xmcd
#
# Track frame offsets: 
#        150
#        15061
#        35934
#        54584
#        71908
#        94384
#        115104
#        135360
#        151471
#        165819
#        183802
#
# Disc length: 2703 seconds
#
# Revision: 0
# Processed by: cddbd v1.5.2PL0 Copyright (c) Steve Scherf et al.
# Submitted via: ExactAudioCopyFreeDBPlugin 1.0
#
DISCID=840a8d0b
DTITLE=Tim Bennett - The View From Here
DYEAR=2017
DGENRE=country
TTITLE0=As Long As You're Buying
TTITLE1=Forgive and Forget
TTITLE2=There Was Nothing I Could Do
TTITLE3=Coulda Woulda Shoulda
TTITLE4=I'll Be Expecting You
TTITLE5=Hot Town
TTITLE6=A Dangerous Man
TTITLE7=Tonight I'll Be Staying Here With You
TTITLE8=Ain't Got Time For This
TTITLE9=Awakened By My Breaking Heart
TTITLE10=The End Of The Line
EXTD=
EXTT0=
EXTT1=
EXTT2=
EXTT3=
EXTT4=
EXTT5=
EXTT6=
EXTT7=
EXTT8=
EXTT9=
EXTT10=
PLAYORDER=
